<svg width="1575" height="801" viewBox="0 0 1575 801" fill="none" xmlns="http://www.w3.org/2000/svg">
<path d="M783.35 62.388C876.6 63.763 885.85 84.9505 913.162 85.7005C952.662 86.8255 1013.04 10.8881 1094.85 79.513C1175.47 147.138 1109.79 253.263 1109.79 253.263C1109.79 253.263 1154.66 332.763 1159.91 453.888C1163.72 541.576 1129.97 650.701 978.662 712.576C839.35 769.576 631.475 758.201 504.412 660.638C405.912 585.076 412.85 474.826 415.537 437.263C422.6 338.701 465.662 259.513 465.662 259.513C465.662 259.513 401.975 133.576 479.725 73.8881C565.1 8.32555 625.85 85.5131 660.975 82.7006C686.537 80.5756 694.912 61.0755 783.35 62.388Z" fill="#855B52"/>
<path d="M612.662 130.138C611.475 123.201 566.225 78.3256 519.412 123.951C483.35 159.138 519.412 220.326 525.6 215.451C530.35 211.701 547.85 189.138 568.287 169.701C589.225 149.763 613.1 132.826 612.662 130.138Z" fill="#B99277"/>
<path d="M965.912 130.576C965.6 134.451 989.725 149.013 1011.66 169.701C1033.85 190.638 1053.85 217.638 1057.41 217.201C1064.47 216.326 1094.79 156.951 1055.22 123.513C1015.66 90.0756 966.787 119.138 965.912 130.576Z" fill="#B99277"/>
<path d="M790.975 377.701C882.475 377.701 937.35 480.951 934.1 545.451C931.162 604.138 897.725 652.826 785.1 652.201C672.475 651.638 643.912 599.951 641.975 544.826C640.225 495.576 675.412 377.701 790.975 377.701Z" fill="#F2A258"/>
<path d="M968.537 373.451C970.6 399.451 956.662 423.138 929.975 421.138C904.225 419.138 885.412 398.263 885.412 372.138C885.412 346.013 899.287 327.513 920.162 324.638C945.662 321.076 965.6 336.513 968.537 373.451Z" fill="#171716"/>
<path d="M853.725 481.513C851.6 507.513 834.35 535.326 784.225 533.576C742.162 532.076 722.35 504.076 721.725 478.013C720.85 441.201 740.475 427.638 788.037 426.951C842.287 426.263 856.662 445.763 853.725 481.513Z" fill="#2F3030"/>
<path d="M690.1 383.138C687.412 409.076 663.037 427.263 640.225 421.7C615.162 415.575 603.912 389.201 609.162 363.638C613.85 340.763 633.912 322.95 656.662 325.513C680.412 328.138 693.475 350.45 690.1 383.138Z" fill="#171716"/>
<path d="M787.725 594.325C822.037 594.325 840.787 575.388 846.1 570.138C851.412 564.888 858.537 555.888 869.537 564.888C878.912 572.513 869.662 584.388 865.412 588.95C857.787 597.138 834.787 622.138 784.6 619.888C735.35 617.7 716.412 595.388 711.1 590.138C705.85 584.888 697.037 571.388 706.975 563.763C718.912 554.638 722.787 564.95 735.1 574.888C747.412 584.825 755.162 594.325 787.725 594.325Z" fill="#2F3030"/>
<path d="M1201.31 17.7642C1220.77 -3.86059 1254.08 -5.61372 1275.71 13.8492L1397.74 123.683C1449.47 170.227 1492.37 208.834 1521.83 243.855C1552.8 280.674 1574.82 320.239 1574.82 369.075C1574.82 417.911 1552.8 457.476 1521.83 494.295C1492.37 529.316 1449.47 567.925 1397.74 614.465L1275.71 724.303C1254.08 743.766 1220.77 742.01 1201.31 720.384C1181.85 698.757 1183.6 665.451 1205.23 645.988L1324.38 538.749C1379.72 488.943 1417.03 455.201 1441.2 426.473C1464.4 398.898 1469.46 382.799 1469.46 369.075C1469.46 355.351 1464.4 339.252 1441.2 311.677C1417.03 282.949 1379.72 249.207 1324.38 199.401L1205.23 92.1601C1183.6 72.6972 1181.85 39.3898 1201.31 17.7642Z" fill="#1C274C"/>
<path d="M370.348 92.1601C391.973 72.6972 393.726 39.3898 374.264 17.7642C354.801 -3.86059 321.493 -5.61372 299.868 13.8492L177.831 123.683C126.112 170.227 83.2099 208.834 53.7514 243.855C22.7745 280.674 0.754883 320.239 0.754883 369.075C0.754883 417.911 22.7745 457.476 53.7514 494.295C83.2099 529.316 126.111 567.925 177.829 614.465L299.868 724.303C321.493 743.766 354.801 742.01 374.264 720.384C393.726 698.757 391.973 665.451 370.348 645.988L251.192 538.749C195.853 488.943 158.543 455.201 134.374 426.473C111.178 398.898 106.112 382.799 106.112 369.075C106.112 355.351 111.178 339.252 134.374 311.677C158.543 282.949 195.853 249.207 251.192 199.401L370.348 92.1601Z" fill="#1C274C"/>
</svg>
