   <?xml version="1.0" encoding="utf-8"?><!-- Uploaded to: SVG Repo, www.svgrepo.com, Generator: SVG Repo Mixer Tools -->
      <svg
        fill="#000000"
        width="400px"
        height="400px"
        viewBox="0 0 24 24"
        xmlns="http://www.w3.org/2000/svg"
      >
        <path
          d="M19,1a3.976,3.976,0,0,0-3.268,1.729,9.917,9.917,0,0,0-7.464,0,3.984,3.984,0,1,0-5.539,5.54A9.941,9.941,0,0,0,2,12c0,5.192,4.276,11,10,11s10-5.808,10-11a9.941,9.941,0,0,0-.729-3.731A3.984,3.984,0,0,0,19,1ZM3.667,6.478A1.978,1.978,0,0,1,3,5,2,2,0,0,1,5,3a1.978,1.978,0,0,1,1.478.667A10.3,10.3,0,0,0,3.667,6.478ZM12,21c-4.579,0-8-4.751-8-9a8,8,0,0,1,16,0C20,16.249,16.579,21,12,21ZM17.522,3.667A1.978,1.978,0,0,1,19,3a2,2,0,0,1,2,2,1.978,1.978,0,0,1-.667,1.478A10.407,10.407,0,0,0,17.522,3.667Z"
        />
        <path
          transform="scale(0.5) translate(12, 12)"
          d="M7 8L3 11.6923L7 16M17 8L21 11.6923L17 16M14 4L10 20"
          stroke="#000000"
          stroke-width="2"
          stroke-linecap="round"
          stroke-linejoin="round"
          fill="none"
        />
      </svg>