<svg width="1440" height="797" viewBox="0 0 1440 797" fill="none" xmlns="http://www.w3.org/2000/svg">
<path d="M1111.76 566.517H1159.12C1161.65 566.517 1164.07 567.525 1165.86 569.313L1197.9 601.468C1199.7 603.275 1200.7 605.718 1200.69 608.27V655.372C1200.68 656.48 1199.79 657.37 1198.69 657.37H1173.96C1172.85 657.37 1171.96 656.471 1171.96 655.363V604.501C1171.96 599.226 1167.69 594.948 1162.44 594.948H1111.75C1110.65 594.948 1109.75 594.049 1109.75 592.942V568.514C1109.77 567.416 1110.66 566.517 1111.76 566.517Z" fill="#FF585F"/>
<path d="M1243.13 611.893V659.422C1243.13 661.955 1242.13 664.389 1240.35 666.178L1208.31 698.333C1206.5 700.14 1204.07 701.148 1201.53 701.129H1154.59C1153.5 701.12 1152.6 700.23 1152.6 699.123V674.305C1152.6 673.197 1153.5 672.298 1154.6 672.298H1205.28C1210.54 672.298 1214.8 668.021 1214.8 662.745V611.884C1214.8 610.776 1215.7 609.877 1216.8 609.877H1241.14C1242.25 609.886 1243.13 610.785 1243.13 611.893Z" fill="#FF585F"/>
<path d="M1149.18 606.118C1147.08 606.118 1145.37 607.825 1145.37 609.941V618.586C1145.37 620.702 1147.07 622.409 1149.18 622.409H1157.79C1159.89 622.409 1161.6 620.693 1161.6 618.586V609.941C1161.6 607.834 1159.9 606.118 1157.79 606.118H1149.18Z" fill="#FF585F"/>
<path d="M502.125 566.517H549.487C552.012 566.517 554.437 567.525 556.22 569.313L588.262 601.468C590.063 603.275 591.067 605.718 591.049 608.27V655.372C591.04 656.48 590.153 657.37 589.049 657.37H564.319C563.215 657.37 562.319 656.471 562.319 655.363V604.501C562.319 599.226 558.057 594.948 552.799 594.948H502.116C501.012 594.948 500.116 594.049 500.116 592.942V568.514C500.125 567.416 501.021 566.517 502.125 566.517Z" fill="#37FBE4"/>
<path d="M633.498 611.893V659.422C633.498 661.955 632.493 664.389 630.711 666.178L598.668 698.333C596.867 700.14 594.433 701.148 591.891 701.129H544.954C543.859 701.12 542.963 700.23 542.963 699.123V674.305C542.963 673.197 543.859 672.298 544.963 672.298H595.646C600.903 672.298 605.165 668.021 605.165 662.745V611.884C605.165 610.776 606.061 609.877 607.165 609.877H631.507C632.602 609.886 633.498 610.785 633.498 611.893Z" fill="#37FBE4"/>
<path d="M539.543 606.118C537.435 606.118 535.733 607.825 535.733 609.941V618.586C535.733 620.702 537.435 622.409 539.543 622.409H548.158C550.266 622.409 551.967 620.693 551.967 618.586V609.941C551.967 607.834 550.257 606.118 548.158 606.118H539.543Z" fill="#37FBE4"/>
<path d="M25.3726 611.893V659.422C25.3726 661.955 24.3682 664.389 22.5855 666.178L-9.45679 698.333C-11.2575 700.14 -13.6917 701.148 -16.2344 701.129H-63.1713C-64.2663 701.12 -65.1621 700.23 -65.1621 699.123V674.305C-65.1621 673.197 -64.2663 672.298 -63.1623 672.298H-12.4791C-7.2217 672.298 -2.95964 668.021 -2.95964 662.745V611.884C-2.95964 610.776 -2.0638 609.877 -0.959831 609.877H23.3818C24.4768 609.886 25.3726 610.785 25.3726 611.893Z" fill="#E9EAEB"/>
<path d="M961.205 625.841V659.749C961.205 661.556 960.491 663.29 959.215 664.57L936.357 687.508C935.072 688.798 933.335 689.515 931.525 689.506H898.044C897.257 689.506 896.623 688.861 896.623 688.081V670.373C896.623 669.583 897.266 668.947 898.053 668.947H934.203C937.959 668.947 940.999 665.896 940.999 662.128V625.841C940.999 625.051 941.642 624.406 942.429 624.406H959.794C960.563 624.406 961.205 625.051 961.205 625.841Z" fill="#8727FF"/>
<path d="M940.99 732.604V698.696C940.99 696.889 941.705 695.155 942.981 693.874L965.839 670.936C967.124 669.647 968.861 668.929 970.671 668.939H1004.15C1004.94 668.939 1005.57 669.583 1005.57 670.364V688.072C1005.57 688.862 1004.93 689.497 1004.14 689.497H967.992C964.237 689.497 961.196 692.549 961.196 696.317V732.595C961.196 733.385 960.554 734.029 959.767 734.029H942.402C941.624 734.029 940.99 733.394 940.99 732.604Z" fill="#8727FF"/>
<path d="M351.569 625.841V659.749C351.569 661.556 350.854 663.29 349.578 664.57L326.72 687.508C325.435 688.798 323.698 689.515 321.888 689.506H288.407C287.62 689.506 286.986 688.861 286.986 688.081V670.373C286.986 669.583 287.62 668.947 288.407 668.947H324.567C328.322 668.947 331.362 665.896 331.362 662.128V625.841C331.362 625.051 332.005 624.406 332.792 624.406H350.157C350.926 624.406 351.569 625.051 351.569 625.841Z" fill="#E9EAEB"/>
<path d="M331.345 732.604V698.696C331.345 696.889 332.06 695.155 333.336 693.874L356.193 670.936C357.478 669.647 359.216 668.929 361.025 668.939H394.506C395.294 668.939 395.927 669.583 395.927 670.364V688.072C395.927 688.862 395.285 689.497 394.497 689.497H358.338C354.582 689.497 351.542 692.549 351.542 696.317V732.595C351.542 733.385 350.9 734.029 350.112 734.029H332.747C331.987 734.029 331.345 733.394 331.345 732.604Z" fill="#E9EAEB"/>
<path d="M1002.74 516.054L1018.77 532.137C1019.62 532.99 1020.1 534.152 1020.1 535.369V557.127C1020.1 558.344 1019.61 559.515 1018.75 560.378L1002.87 576.314C1002.5 576.687 1001.89 576.687 1001.52 576.314L993.148 567.915C992.777 567.542 992.777 566.934 993.148 566.562L1010.3 549.354C1012.08 547.565 1012.08 544.677 1010.3 542.888L993.148 525.68C992.777 525.308 992.777 524.699 993.148 524.327L1001.38 516.064C1001.76 515.682 1002.37 515.682 1002.74 516.054Z" fill="#E9EAEB"/>
<path d="M1043.61 576.315L1027.59 560.233C1026.74 559.379 1026.26 558.217 1026.26 557V535.242C1026.26 534.025 1026.75 532.854 1027.61 531.991L1043.49 516.055C1043.86 515.682 1044.47 515.682 1044.84 516.055L1053.21 524.454C1053.58 524.827 1053.58 525.435 1053.21 525.807L1036.06 543.015C1034.28 544.804 1034.28 547.692 1036.06 549.481L1053.21 566.689C1053.58 567.061 1053.58 567.67 1053.21 568.042L1044.97 576.305C1044.59 576.687 1043.99 576.687 1043.61 576.315Z" fill="#E9EAEB"/>
<path d="M393.104 516.054L409.129 532.137C409.98 532.99 410.459 534.152 410.459 535.369V557.127C410.459 558.344 409.971 559.515 409.111 560.378L393.23 576.314C392.859 576.687 392.253 576.687 391.882 576.314L383.512 567.915C383.141 567.542 383.141 566.934 383.512 566.562L400.659 549.354C402.442 547.565 402.442 544.677 400.659 542.888L383.512 525.68C383.141 525.308 383.141 524.699 383.512 524.327L391.746 516.064C392.126 515.682 392.733 515.682 393.104 516.054Z" fill="#FF585F"/>
<path d="M433.978 576.315L417.952 560.233C417.102 559.379 416.622 558.217 416.622 557V535.242C416.622 534.025 417.111 532.854 417.97 531.991L433.851 516.055C434.222 515.682 434.828 515.682 435.2 516.055L443.57 524.454C443.941 524.827 443.941 525.435 443.57 525.807L426.422 543.015C424.639 544.804 424.639 547.692 426.422 549.481L443.57 566.689C443.941 567.061 443.941 567.67 443.57 568.042L435.335 576.305C434.955 576.687 434.349 576.687 433.978 576.315Z" fill="#FF585F"/>
<path d="M1432.64 631.517L1458.01 656.979C1459.36 658.332 1460.12 660.176 1460.12 662.101V696.553C1460.12 698.487 1459.35 700.34 1457.98 701.693L1432.84 726.928C1432.25 727.518 1431.29 727.518 1430.7 726.919L1417.45 713.625C1416.87 713.035 1416.87 712.072 1417.45 711.482L1444.6 684.24C1447.41 681.415 1447.41 676.83 1444.6 674.005L1417.45 646.763C1416.87 646.173 1416.87 645.21 1417.45 644.62L1430.49 631.535C1431.09 630.926 1432.05 630.926 1432.64 631.517Z" fill="#8727FF"/>
<path d="M1384.11 726.919L1358.74 701.457C1357.39 700.104 1356.63 698.26 1356.63 696.335V661.892C1356.63 659.958 1357.4 658.105 1358.76 656.752L1383.91 631.517C1384.5 630.927 1385.46 630.927 1386.05 631.526L1399.29 644.82C1399.88 645.41 1399.88 646.373 1399.29 646.963L1372.15 674.205C1369.33 677.03 1369.33 681.615 1372.15 684.439L1399.29 711.682C1399.88 712.272 1399.88 713.235 1399.29 713.825L1386.25 726.91C1385.66 727.519 1384.7 727.519 1384.11 726.919Z" fill="#8727FF"/>
<path d="M823.001 631.517L848.375 656.979C849.723 658.332 850.483 660.176 850.483 662.101V696.553C850.483 698.487 849.714 700.34 848.347 701.693L823.2 726.928C822.603 727.518 821.653 727.518 821.065 726.919L807.817 713.625C807.229 713.035 807.229 712.072 807.817 711.482L834.964 684.24C837.778 681.415 837.778 676.83 834.964 674.005L807.817 646.763C807.229 646.173 807.229 645.21 807.817 644.62L820.857 631.535C821.454 630.926 822.404 630.926 823.001 631.517Z" fill="#37FBE4"/>
<path d="M774.471 726.919L749.098 701.457C747.75 700.104 746.98 698.26 746.98 696.335V661.892C746.98 659.958 747.75 658.105 749.116 656.752L774.263 631.517C774.851 630.927 775.81 630.927 776.399 631.526L789.646 644.82C790.234 645.41 790.234 646.373 789.646 646.963L762.499 674.205C759.685 677.03 759.685 681.615 762.499 684.439L789.646 711.682C790.234 712.272 790.234 713.235 789.646 713.825L776.607 726.91C776.019 727.519 775.059 727.519 774.471 726.919Z" fill="#37FBE4"/>
<path d="M214.866 631.517L240.239 656.979C241.597 658.332 242.357 660.176 242.357 662.101V696.553C242.357 698.487 241.588 700.34 240.221 701.693L215.074 726.928C214.486 727.518 213.527 727.518 212.939 726.919L199.691 713.625C199.103 713.035 199.103 712.072 199.691 711.482L226.838 684.24C229.652 681.415 229.652 676.83 226.838 674.005L199.691 646.763C199.103 646.173 199.103 645.21 199.691 644.62L212.731 631.535C213.319 630.926 214.278 630.926 214.866 631.517Z" fill="#8727FF"/>
<path d="M166.337 726.919L140.964 701.457C139.607 700.104 138.847 698.26 138.847 696.335V661.892C138.847 659.958 139.616 658.105 140.982 656.752L166.129 631.517C166.717 630.927 167.677 630.927 168.265 631.526L181.512 644.82C182.101 645.41 182.101 646.373 181.512 646.963L154.366 674.205C151.551 677.03 151.551 681.615 154.366 684.439L181.512 711.682C182.101 712.272 182.101 713.235 181.512 713.825L168.473 726.91C167.894 727.519 166.935 727.519 166.337 726.919Z" fill="#8727FF"/>
<path d="M934.276 560.85L942.646 569.25C943.089 569.695 943.343 570.303 943.343 570.939V582.308C943.343 582.944 943.089 583.561 942.637 584.006L934.339 592.333C934.149 592.524 933.832 592.524 933.633 592.333L929.263 587.947C929.073 587.747 929.073 587.429 929.263 587.239L938.221 578.249C939.153 577.313 939.153 575.806 938.221 574.871L929.263 565.881C929.073 565.681 929.073 565.363 929.263 565.172L933.57 560.85C933.769 560.659 934.086 560.659 934.276 560.85Z" fill="#8727FF"/>
<path d="M918.268 592.333L909.898 583.933C909.455 583.488 909.201 582.88 909.201 582.244V570.875C909.201 570.24 909.455 569.622 909.907 569.177L918.205 560.85C918.395 560.659 918.712 560.659 918.911 560.85L923.281 565.236C923.471 565.436 923.471 565.754 923.281 565.944L914.323 574.934C913.391 575.87 913.391 577.377 914.323 578.312L923.281 587.302C923.471 587.502 923.471 587.82 923.281 588.011L918.974 592.333C918.775 592.524 918.458 592.524 918.268 592.333Z" fill="#8727FF"/>
<path d="M324.639 560.85L333.009 569.25C333.453 569.695 333.706 570.303 333.706 570.939V582.308C333.706 582.944 333.453 583.561 333 584.006L324.702 592.333C324.503 592.524 324.196 592.524 323.996 592.333L319.626 587.947C319.427 587.747 319.427 587.429 319.626 587.239L328.584 578.249C329.516 577.313 329.516 575.806 328.584 574.871L319.626 565.881C319.427 565.681 319.427 565.363 319.626 565.172L323.933 560.85C324.132 560.659 324.449 560.659 324.639 560.85Z" fill="#8727FF"/>
<path d="M308.632 592.333L300.261 583.933C299.818 583.488 299.564 582.88 299.564 582.244V570.875C299.564 570.24 299.818 569.622 300.27 569.177L308.568 560.85C308.758 560.659 309.075 560.659 309.274 560.85L313.645 565.236C313.835 565.436 313.835 565.754 313.645 565.944L304.686 574.934C303.754 575.87 303.754 577.377 304.686 578.312L313.645 587.302C313.835 587.502 313.835 587.82 313.645 588.011L309.337 592.333C309.138 592.524 308.822 592.524 308.632 592.333Z" fill="#8727FF"/>
<path d="M1329.64 523.683L1348.62 542.725C1349.63 543.742 1350.2 545.114 1350.2 546.548L1350.25 572.274C1350.25 573.718 1349.68 575.098 1348.65 576.115L1329.91 594.921C1329.47 595.357 1328.76 595.357 1328.32 594.912L1318.41 584.969C1317.97 584.524 1317.97 583.807 1318.41 583.362L1338.66 563.048C1340.75 560.941 1340.75 557.518 1338.64 555.402L1318.33 535.016C1317.89 534.571 1317.89 533.853 1318.33 533.408L1328.05 523.656C1328.48 523.238 1329.2 523.238 1329.64 523.683Z" fill="#E9EAEB"/>
<path d="M1313.23 620.956L1294.25 601.914C1293.24 600.897 1292.67 599.526 1292.67 598.091L1292.62 572.356C1292.62 570.912 1293.19 569.532 1294.22 568.515L1312.96 549.709C1313.4 549.273 1314.11 549.273 1314.55 549.718L1324.46 559.661C1324.9 560.106 1324.9 560.823 1324.46 561.268L1304.21 581.582C1302.12 583.689 1302.12 587.112 1304.23 589.228L1324.54 609.614C1324.98 610.059 1324.98 610.777 1324.54 611.222L1314.82 620.974C1314.39 621.401 1313.67 621.401 1313.23 620.956Z" fill="#E9EAEB"/>
<path d="M719.997 523.683L738.972 542.725C739.986 543.742 740.556 545.114 740.556 546.548L740.601 572.274C740.601 573.718 740.031 575.098 739.009 576.115L720.259 594.921C719.816 595.357 719.11 595.357 718.667 594.912L708.758 584.969C708.315 584.524 708.315 583.807 708.758 583.362L729 563.048C731.1 560.941 731.091 557.518 728.982 555.402L708.668 535.016C708.224 534.571 708.224 533.853 708.668 533.408L718.386 523.656C718.839 523.238 719.553 523.238 719.997 523.683Z" fill="#E9EAEB"/>
<path d="M703.582 620.956L684.606 601.914C683.593 600.897 683.023 599.526 683.023 598.091L682.978 572.356C682.978 570.912 683.548 569.532 684.57 568.515L703.32 549.709C703.763 549.273 704.469 549.273 704.912 549.718L714.821 559.661C715.264 560.106 715.264 560.823 714.821 561.268L694.578 581.582C692.479 583.689 692.488 587.112 694.596 589.228L714.911 609.614C715.355 610.059 715.355 610.777 714.911 611.222L705.193 620.974C704.74 621.401 704.025 621.401 703.582 620.956Z" fill="#E9EAEB"/>
<path d="M111.871 523.683L130.856 542.725C131.869 543.742 132.439 545.114 132.439 546.548L132.485 572.274C132.485 573.718 131.914 575.098 130.892 576.115L112.152 594.921C111.708 595.357 111.002 595.357 110.559 594.912L100.65 584.969C100.207 584.524 100.207 583.807 100.65 583.362L120.893 563.048C122.992 560.941 122.983 557.518 120.884 555.402L100.569 535.016C100.125 534.571 100.125 533.853 100.569 533.408L110.287 523.656C110.713 523.238 111.428 523.238 111.871 523.683Z" fill="#8727FF"/>
<path d="M95.4563 620.956L76.4716 601.914C75.4581 600.897 74.888 599.526 74.888 598.091L74.8428 572.356C74.8428 570.912 75.4128 569.532 76.4354 568.515L95.1848 549.709C95.6282 549.273 96.334 549.273 96.7774 549.718L106.686 559.661C107.129 560.106 107.129 560.823 106.686 561.268L86.4435 581.582C84.3441 583.689 84.3532 587.112 86.4616 589.228L106.776 609.614C107.22 610.059 107.22 610.777 106.776 611.222L97.0579 620.974C96.6145 621.401 95.8997 621.401 95.4563 620.956Z" fill="#8727FF"/>
<path d="M1125.49 704.271L1143.52 722.369C1144.48 723.332 1145.03 724.64 1145.03 726.002L1145.07 750.447C1145.07 751.818 1144.53 753.135 1143.56 754.098L1125.75 771.968C1125.34 772.386 1124.66 772.386 1124.24 771.959L1114.82 762.506C1114.4 762.089 1114.4 761.408 1114.82 760.981L1134.05 741.684C1136.05 739.677 1136.04 736.426 1134.04 734.42L1114.75 715.059C1114.33 714.642 1114.32 713.961 1114.75 713.534L1123.99 704.262C1124.39 703.854 1125.07 703.854 1125.49 704.271Z" fill="#E9EAEB"/>
<path d="M1109.9 796.687L1091.86 778.589C1090.9 777.626 1090.36 776.319 1090.36 774.957L1090.32 750.511C1090.32 749.14 1090.86 747.823 1091.83 746.861L1109.64 728.99C1110.05 728.572 1110.73 728.572 1111.15 728.999L1120.57 738.443C1120.98 738.861 1120.98 739.551 1120.57 739.969L1101.34 759.265C1099.34 761.272 1099.35 764.523 1101.35 766.53L1120.64 785.89C1121.06 786.308 1121.06 786.989 1120.64 787.416L1111.4 796.687C1110.99 797.105 1110.31 797.105 1109.9 796.687Z" fill="#E9EAEB"/>
<path d="M518.775 704.271L536.801 722.369C537.76 723.332 538.303 724.64 538.303 726.002L538.348 750.447C538.348 751.818 537.805 753.135 536.837 754.098L519.029 771.968C518.612 772.386 517.934 772.386 517.517 771.959L508.097 762.506C507.681 762.089 507.681 761.408 508.097 760.981L527.327 741.684C529.317 739.677 529.317 736.426 527.317 734.42L508.025 715.059C507.609 714.642 507.609 713.961 508.025 713.534L517.264 704.262C517.671 703.854 518.35 703.854 518.775 704.271Z" fill="#E9EAEB"/>
<path d="M503.184 796.687L485.15 778.589C484.191 777.626 483.648 776.319 483.648 774.957L483.603 750.511C483.603 749.14 484.146 747.823 485.114 746.861L502.922 728.99C503.338 728.572 504.017 728.572 504.433 728.999L513.853 738.443C514.269 738.861 514.269 739.551 513.853 739.969L494.624 759.265C492.633 761.272 492.633 764.523 494.633 766.53L513.926 785.89C514.342 786.308 514.342 786.989 513.926 787.416L504.687 796.687C504.279 797.105 503.601 797.105 503.184 796.687Z" fill="#E9EAEB"/>
<path d="M672.091 773.776H645.578C644.166 773.776 642.809 773.213 641.804 772.205L623.86 754.198C622.856 753.19 622.295 751.819 622.295 750.384V724.013C622.295 723.396 622.802 722.896 623.417 722.896H637.262C637.877 722.896 638.375 723.396 638.375 724.022V752.5C638.375 755.451 640.764 757.848 643.705 757.848H672.082C672.698 757.848 673.204 758.348 673.204 758.974V772.65C673.213 773.277 672.707 773.776 672.091 773.776Z" fill="#8727FF"/>
<path d="M647.759 698.487H674.272C675.684 698.487 677.041 699.05 678.045 700.058L695.99 718.065C696.994 719.073 697.555 720.445 697.555 721.87V748.241C697.555 748.858 697.048 749.358 696.433 749.358H682.588C681.973 749.358 681.475 748.858 681.475 748.232V719.754C681.475 716.803 679.086 714.406 676.145 714.406H647.768C647.152 714.406 646.646 713.906 646.646 713.28V699.604C646.637 698.987 647.143 698.487 647.759 698.487Z" fill="#8727FF"/>
<path d="M63.9663 773.776H37.4529C36.0412 773.776 34.6839 773.213 33.6795 772.205L15.7354 754.198C14.731 753.19 14.1699 751.819 14.1699 750.384V724.013C14.1699 723.396 14.6767 722.896 15.292 722.896H29.1369C29.7522 722.896 30.259 723.396 30.259 724.022V752.5C30.259 755.451 32.6479 757.848 35.5888 757.848H63.9663C64.5816 757.848 65.0884 758.348 65.0884 758.974V772.65C65.0884 773.277 64.5816 773.776 63.9663 773.776Z" fill="#FF585F"/>
<path d="M39.6338 698.487H66.1472C67.5588 698.487 68.9162 699.05 69.9206 700.058L87.8647 718.065C88.8691 719.073 89.4301 720.445 89.4301 721.87V748.241C89.4301 748.858 88.9234 749.358 88.3081 749.358H74.4632C73.8479 749.358 73.3411 748.858 73.3411 748.232V719.754C73.3411 716.803 70.9522 714.406 68.0113 714.406H39.6338C39.0185 714.406 38.5117 713.906 38.5117 713.28V699.604C38.5117 698.987 39.0185 698.487 39.6338 698.487Z" fill="#FF585F"/>
<path d="M1281.73 773.776H1255.21C1253.8 773.776 1252.45 773.213 1251.44 772.205L1233.5 754.198C1232.49 753.19 1231.93 751.819 1231.93 750.384V724.013C1231.93 723.396 1232.44 722.896 1233.05 722.896H1246.9C1247.51 722.896 1248.01 723.396 1248.01 724.022V752.5C1248.01 755.451 1250.4 757.848 1253.34 757.848H1281.72C1282.33 757.848 1282.84 758.348 1282.84 758.974V772.65C1282.85 773.277 1282.35 773.776 1281.73 773.776Z" fill="#37FBE4"/>
<path d="M1257.4 698.487H1283.91C1285.32 698.487 1286.68 699.05 1287.68 700.058L1305.63 718.065C1306.63 719.073 1307.19 720.445 1307.19 721.87V748.241C1307.19 748.858 1306.69 749.358 1306.07 749.358H1292.23C1291.61 749.358 1291.11 748.858 1291.11 748.232V719.754C1291.11 716.803 1288.72 714.406 1285.78 714.406H1257.41C1256.79 714.406 1256.28 713.906 1256.28 713.28V699.604C1256.28 698.987 1256.78 698.487 1257.4 698.487Z" fill="#37FBE4"/>
<path d="M1083.65 638.364L1100.29 655.063C1101.18 655.953 1101.67 657.161 1101.67 658.423V681.025C1101.67 682.297 1101.17 683.504 1100.27 684.394L1083.77 700.948C1083.38 701.33 1082.76 701.33 1082.37 700.948L1073.68 692.231C1073.3 691.84 1073.3 691.214 1073.68 690.823L1091.49 672.953C1093.34 671.1 1093.34 668.094 1091.49 666.242L1073.68 648.371C1073.3 647.98 1073.3 647.354 1073.68 646.963L1082.24 638.382C1082.63 637.983 1083.26 637.982 1083.65 638.364Z" fill="#FF585F"/>
<path d="M1056.22 638.364L1072.86 655.063C1073.75 655.953 1074.25 657.161 1074.25 658.423V681.025C1074.25 682.297 1073.74 683.504 1072.84 684.394L1056.35 700.948C1055.96 701.33 1055.33 701.33 1054.94 700.948L1046.26 692.231C1045.87 691.84 1045.87 691.214 1046.26 690.823L1064.07 672.953C1065.91 671.1 1065.91 668.094 1064.07 666.242L1046.26 648.371C1045.87 647.98 1045.87 647.354 1046.26 646.963L1054.81 638.382C1055.21 637.983 1055.83 637.982 1056.22 638.364Z" fill="#FF585F"/>
<path d="M474.011 638.364L490.652 655.063C491.538 655.953 492.036 657.161 492.036 658.423V681.025C492.036 682.297 491.529 683.504 490.633 684.394L474.137 700.948C473.748 701.33 473.124 701.33 472.735 700.948L464.048 692.231C463.659 691.84 463.659 691.214 464.048 690.823L481.856 672.953C483.702 671.1 483.702 668.094 481.856 666.242L464.048 648.371C463.659 647.98 463.659 647.354 464.048 646.963L472.599 638.382C472.988 637.983 473.621 637.982 474.011 638.364Z" fill="#8727FF"/>
<path d="M446.583 638.364L463.224 655.063C464.111 655.953 464.608 657.161 464.608 658.423V681.025C464.608 682.297 464.102 683.504 463.206 684.394L446.71 700.948C446.32 701.33 445.696 701.33 445.307 700.948L436.62 692.231C436.231 691.84 436.231 691.214 436.62 690.823L454.428 672.953C456.274 671.1 456.274 668.094 454.428 666.242L436.62 648.371C436.231 647.98 436.231 647.354 436.62 646.963L445.171 638.382C445.56 637.983 446.194 637.982 446.583 638.364Z" fill="#8727FF"/>
<path d="M845.831 507.074L866.635 527.951C867.748 529.067 868.363 530.575 868.363 532.146V560.396C868.363 561.976 867.73 563.502 866.608 564.619L845.994 585.305C845.506 585.786 844.727 585.786 844.248 585.295L833.389 574.399C832.9 573.908 832.9 573.127 833.389 572.637L855.649 550.298C857.957 547.983 857.957 544.223 855.649 541.908L833.389 519.569C832.9 519.079 832.9 518.298 833.389 517.807L844.085 507.074C844.555 506.583 845.343 506.583 845.831 507.074Z" fill="#FF585F"/>
<path d="M811.545 507.074L832.349 527.951C833.462 529.067 834.077 530.575 834.077 532.146V560.396C834.077 561.976 833.444 563.502 832.322 564.61L811.708 585.295C811.219 585.777 810.441 585.777 809.962 585.295L799.103 574.399C798.614 573.908 798.614 573.127 799.103 572.637L821.363 550.298C823.671 547.983 823.671 544.223 821.363 541.908L799.103 519.569C798.614 519.088 798.614 518.298 799.103 517.807L809.799 507.074C810.278 506.583 811.056 506.583 811.545 507.074Z" fill="#FF585F"/>
<path d="M239.018 507.074L259.821 527.951C260.934 529.067 261.55 530.575 261.55 532.146V560.396C261.55 561.976 260.916 563.502 259.794 564.619L239.181 585.305C238.692 585.786 237.914 585.786 237.434 585.295L226.575 574.399C226.087 573.908 226.087 573.127 226.575 572.637L248.836 550.298C251.143 547.983 251.143 544.223 248.836 541.908L226.575 519.569C226.087 519.079 226.087 518.298 226.575 517.807L237.271 507.074C237.742 506.583 238.529 506.583 239.018 507.074Z" fill="#37FBE4"/>
<path d="M204.732 507.074L225.535 527.951C226.648 529.067 227.264 530.575 227.264 532.146V560.396C227.264 561.976 226.63 563.502 225.508 564.61L204.895 585.295C204.406 585.777 203.628 585.777 203.148 585.295L192.289 574.399C191.801 573.908 191.801 573.127 192.289 572.637L214.55 550.298C216.857 547.983 216.857 544.223 214.55 541.908L192.289 519.569C191.801 519.088 191.801 518.298 192.289 517.807L202.985 507.074C203.465 506.583 204.252 506.583 204.732 507.074Z" fill="#37FBE4"/>
<path d="M1421.18 507.074L1441.99 527.951C1443.1 529.067 1443.71 530.575 1443.71 532.146V560.396C1443.71 561.976 1443.08 563.502 1441.96 564.61L1421.34 585.295C1420.86 585.777 1420.08 585.777 1419.6 585.295L1408.74 574.399C1408.25 573.908 1408.25 573.127 1408.74 572.637L1431 550.298C1433.31 547.983 1433.31 544.223 1431 541.908L1408.74 519.569C1408.25 519.088 1408.25 518.298 1408.74 517.807L1419.44 507.074C1419.91 506.583 1420.7 506.583 1421.18 507.074Z" fill="#37FBE4"/>
<path d="M1111.76 312.255H1159.12C1161.65 312.255 1164.07 313.263 1165.86 315.052L1197.9 347.207C1199.7 349.014 1200.7 351.457 1200.69 354.009V401.111C1200.68 402.209 1199.79 403.108 1198.69 403.108H1173.96C1172.85 403.108 1171.96 402.209 1171.96 401.102V350.24C1171.96 344.964 1167.69 340.687 1162.44 340.687H1111.75C1110.65 340.687 1109.75 339.788 1109.75 338.68V314.253C1109.77 313.154 1110.66 312.255 1111.76 312.255Z" fill="#37FBE4"/>
<path d="M1243.13 357.632V405.161C1243.13 407.694 1242.13 410.128 1240.35 411.917L1208.31 444.072C1206.5 445.879 1204.07 446.887 1201.53 446.869H1154.59C1153.5 446.86 1152.6 445.97 1152.6 444.862V420.044C1152.6 418.936 1153.5 418.037 1154.6 418.037H1205.28C1210.54 418.037 1214.8 413.76 1214.8 408.484V357.623C1214.8 356.515 1215.7 355.616 1216.8 355.616H1241.14C1242.25 355.625 1243.13 356.524 1243.13 357.632Z" fill="#37FBE4"/>
<path d="M1149.18 351.856C1147.08 351.856 1145.37 353.573 1145.37 355.679V364.324C1145.37 366.44 1147.07 368.147 1149.18 368.147H1157.79C1159.89 368.147 1161.6 366.44 1161.6 364.324V355.679C1161.6 353.573 1159.9 351.856 1157.79 351.856H1149.18Z" fill="#37FBE4"/>
<path d="M502.125 312.255H549.487C552.012 312.255 554.437 313.263 556.22 315.052L588.262 347.207C590.063 349.014 591.067 351.457 591.049 354.009V401.111C591.04 402.209 590.153 403.108 589.049 403.108H564.319C563.215 403.108 562.319 402.209 562.319 401.102V350.24C562.319 344.964 558.057 340.687 552.799 340.687H502.116C501.012 340.687 500.116 339.788 500.116 338.68V314.253C500.125 313.154 501.021 312.255 502.125 312.255Z" fill="#E9EAEB"/>
<path d="M633.498 357.632V405.161C633.498 407.694 632.493 410.128 630.711 411.917L598.668 444.072C596.867 445.879 594.433 446.887 591.891 446.869H544.954C543.859 446.86 542.963 445.97 542.963 444.862V420.044C542.963 418.936 543.859 418.037 544.963 418.037H595.646C600.903 418.037 605.165 413.76 605.165 408.484V357.623C605.165 356.515 606.061 355.616 607.165 355.616H631.507C632.602 355.625 633.498 356.524 633.498 357.632Z" fill="#E9EAEB"/>
<path d="M539.543 351.856C537.435 351.856 535.733 353.573 535.733 355.679V364.324C535.733 366.44 537.435 368.147 539.543 368.147H548.158C550.266 368.147 551.967 366.44 551.967 364.324V355.679C551.967 353.573 550.257 351.856 548.158 351.856H539.543Z" fill="#E9EAEB"/>
<path d="M25.3726 357.632V405.161C25.3726 407.694 24.3682 410.128 22.5855 411.917L-9.45679 444.072C-11.2575 445.879 -13.6917 446.887 -16.2344 446.869H-63.1713C-64.2663 446.86 -65.1621 445.97 -65.1621 444.862V420.044C-65.1621 418.936 -64.2663 418.037 -63.1623 418.037H-12.4791C-7.2217 418.037 -2.95964 413.76 -2.95964 408.484V357.623C-2.95964 356.515 -2.0638 355.616 -0.959831 355.616H23.3818C24.4768 355.625 25.3726 356.524 25.3726 357.632Z" fill="#FF585F"/>
<path d="M961.205 371.58V405.488C961.205 407.295 960.491 409.029 959.215 410.31L936.357 433.248C935.072 434.537 933.335 435.255 931.525 435.245H898.044C897.257 435.245 896.623 434.601 896.623 433.82V416.112C896.623 415.322 897.266 414.678 898.053 414.678H934.203C937.959 414.678 940.999 411.626 940.999 407.858V371.58C940.999 370.79 941.642 370.146 942.429 370.146H959.794C960.563 370.146 961.205 370.79 961.205 371.58Z" fill="#37FBE4"/>
<path d="M940.99 478.342V444.435C940.99 442.627 941.705 440.893 942.981 439.613L965.839 416.675C967.124 415.385 968.861 414.668 970.671 414.677H1004.15C1004.94 414.677 1005.57 415.322 1005.57 416.103V433.81C1005.57 434.6 1004.93 435.245 1004.14 435.245H967.992C964.237 435.245 961.196 438.296 961.196 442.064V478.342C961.196 479.132 960.554 479.777 959.767 479.777H942.402C941.624 479.768 940.99 479.132 940.99 478.342Z" fill="#37FBE4"/>
<path d="M351.569 371.58V405.488C351.569 407.295 350.854 409.029 349.578 410.31L326.72 433.248C325.435 434.537 323.698 435.255 321.888 435.245H288.407C287.62 435.245 286.986 434.601 286.986 433.82V416.112C286.986 415.322 287.62 414.678 288.407 414.678H324.567C328.322 414.678 331.362 411.626 331.362 407.858V371.58C331.362 370.79 332.005 370.146 332.792 370.146H350.157C350.926 370.146 351.569 370.79 351.569 371.58Z" fill="#FF585F"/>
<path d="M331.345 478.342V444.435C331.345 442.627 332.06 440.893 333.336 439.613L356.193 416.675C357.478 415.385 359.216 414.668 361.025 414.677H394.506C395.294 414.677 395.927 415.322 395.927 416.103V433.81C395.927 434.6 395.285 435.245 394.497 435.245H358.338C354.582 435.245 351.542 438.296 351.542 442.064V478.342C351.542 479.132 350.9 479.777 350.112 479.777H332.747C331.987 479.768 331.345 479.132 331.345 478.342Z" fill="#FF585F"/>
<path d="M1002.74 261.794L1018.77 277.876C1019.62 278.729 1020.1 279.892 1020.1 281.109V302.866C1020.1 304.083 1019.61 305.254 1018.75 306.117L1002.87 322.054C1002.5 322.426 1001.89 322.426 1001.52 322.054L993.148 313.654C992.777 313.282 992.777 312.673 993.148 312.301L1010.3 295.093C1012.08 293.304 1012.08 290.416 1010.3 288.627L993.148 271.419C992.777 271.047 992.777 270.439 993.148 270.066L1001.38 261.803C1001.76 261.421 1002.37 261.421 1002.74 261.794Z" fill="#E9EAEB"/>
<path d="M1043.61 322.054L1027.59 305.972C1026.74 305.118 1026.26 303.956 1026.26 302.739V280.982C1026.26 279.765 1026.75 278.593 1027.61 277.731L1043.49 261.794C1043.86 261.422 1044.47 261.422 1044.84 261.794L1053.21 270.194C1053.58 270.566 1053.58 271.174 1053.21 271.547L1036.06 288.755C1034.28 290.544 1034.28 293.431 1036.06 295.22L1053.21 312.428C1053.58 312.801 1053.58 313.409 1053.21 313.781L1044.97 322.045C1044.59 322.426 1043.99 322.426 1043.61 322.054Z" fill="#E9EAEB"/>
<path d="M393.104 261.794L409.129 277.876C409.98 278.729 410.459 279.892 410.459 281.109V302.866C410.459 304.083 409.971 305.254 409.111 306.117L393.23 322.054C392.859 322.426 392.253 322.426 391.882 322.054L383.512 313.654C383.141 313.282 383.141 312.673 383.512 312.301L400.659 295.093C402.442 293.304 402.442 290.416 400.659 288.627L383.512 271.419C383.141 271.047 383.141 270.439 383.512 270.066L391.746 261.803C392.126 261.421 392.733 261.421 393.104 261.794Z" fill="#37FBE4"/>
<path d="M433.978 322.054L417.952 305.972C417.102 305.118 416.622 303.956 416.622 302.739V280.982C416.622 279.765 417.111 278.593 417.97 277.731L433.851 261.794C434.222 261.422 434.828 261.422 435.2 261.794L443.57 270.194C443.941 270.566 443.941 271.174 443.57 271.547L426.422 288.755C424.639 290.544 424.639 293.431 426.422 295.22L443.57 312.428C443.941 312.801 443.941 313.409 443.57 313.781L435.335 322.045C434.955 322.426 434.349 322.426 433.978 322.054Z" fill="#37FBE4"/>
<path d="M1432.64 377.256L1458.01 402.718C1459.36 404.071 1460.12 405.915 1460.12 407.84V442.292C1460.12 444.226 1459.35 446.079 1457.98 447.432L1432.84 472.667C1432.25 473.258 1431.29 473.258 1430.7 472.658L1417.45 459.364C1416.87 458.774 1416.87 457.811 1417.45 457.221L1444.6 429.979C1447.41 427.155 1447.41 422.569 1444.6 419.745L1417.45 392.502C1416.87 391.912 1416.87 390.95 1417.45 390.359L1430.49 377.274C1431.09 376.666 1432.05 376.666 1432.64 377.256Z" fill="#FF585F"/>
<path d="M1384.11 472.658L1358.74 447.196C1357.39 445.834 1356.63 443.999 1356.63 442.074V407.631C1356.63 405.697 1357.4 403.844 1358.76 402.482L1383.91 377.247C1384.5 376.657 1385.46 376.666 1386.05 377.256L1399.29 390.55C1399.88 391.14 1399.88 392.103 1399.29 392.693L1372.15 419.935C1369.33 422.76 1369.33 427.345 1372.15 430.169L1399.29 457.412C1399.88 458.002 1399.88 458.965 1399.29 459.564L1386.25 472.649C1385.66 473.258 1384.7 473.258 1384.11 472.658Z" fill="#FF585F"/>
<path d="M823.001 377.256L848.375 402.718C849.723 404.071 850.483 405.915 850.483 407.84V442.292C850.483 444.226 849.714 446.079 848.347 447.432L823.2 472.667C822.603 473.258 821.653 473.258 821.065 472.658L807.817 459.364C807.229 458.774 807.229 457.811 807.817 457.221L834.964 429.979C837.778 427.155 837.778 422.569 834.964 419.745L807.817 392.502C807.229 391.912 807.229 390.95 807.817 390.359L820.857 377.274C821.454 376.666 822.404 376.666 823.001 377.256Z" fill="#8727FF"/>
<path d="M774.471 472.658L749.098 447.196C747.75 445.834 746.98 443.999 746.98 442.074V407.631C746.98 405.697 747.75 403.844 749.116 402.482L774.263 377.247C774.851 376.657 775.81 376.666 776.399 377.256L789.646 390.55C790.234 391.14 790.234 392.103 789.646 392.693L762.499 419.935C759.685 422.76 759.685 427.345 762.499 430.169L789.646 457.412C790.234 458.002 790.234 458.965 789.646 459.564L776.607 472.649C776.019 473.258 775.059 473.258 774.471 472.658Z" fill="#8727FF"/>
<path d="M214.866 377.256L240.239 402.718C241.597 404.071 242.357 405.915 242.357 407.84V442.292C242.357 444.226 241.588 446.079 240.221 447.432L215.074 472.667C214.486 473.258 213.527 473.258 212.939 472.658L199.691 459.364C199.103 458.774 199.103 457.811 199.691 457.221L226.838 429.979C229.652 427.155 229.652 422.569 226.838 419.745L199.691 392.502C199.103 391.912 199.103 390.95 199.691 390.359L212.731 377.274C213.319 376.666 214.278 376.666 214.866 377.256Z" fill="#E9EAEB"/>
<path d="M166.337 472.658L140.964 447.196C139.607 445.834 138.847 443.999 138.847 442.074V407.631C138.847 405.697 139.616 403.844 140.982 402.482L166.129 377.247C166.717 376.657 167.677 376.666 168.265 377.256L181.512 390.55C182.101 391.14 182.101 392.103 181.512 392.693L154.366 419.935C151.551 422.76 151.551 427.345 154.366 430.169L181.512 457.412C182.101 458.002 182.101 458.965 181.512 459.564L168.473 472.649C167.894 473.258 166.935 473.258 166.337 472.658Z" fill="#E9EAEB"/>
<path d="M934.276 306.589L942.646 314.989C943.089 315.434 943.343 316.042 943.343 316.678V328.047C943.343 328.683 943.089 329.3 942.637 329.745L934.339 338.072C934.149 338.263 933.832 338.263 933.633 338.072L929.263 333.686C929.073 333.487 929.073 333.169 929.263 332.978L938.221 323.988C939.153 323.053 939.153 321.545 938.221 320.61L929.263 311.62C929.073 311.42 929.073 311.102 929.263 310.912L933.57 306.589C933.769 306.399 934.086 306.399 934.276 306.589Z" fill="#FF585F"/>
<path d="M918.268 338.072L909.898 329.673C909.455 329.228 909.201 328.619 909.201 327.984V316.614C909.201 315.979 909.455 315.361 909.907 314.916L918.205 306.589C918.395 306.399 918.712 306.399 918.911 306.589L923.281 310.975C923.471 311.175 923.471 311.493 923.281 311.684L914.323 320.674C913.391 321.609 913.391 323.116 914.323 324.052L923.281 333.042C923.471 333.241 923.471 333.559 923.281 333.75L918.974 338.072C918.775 338.263 918.458 338.263 918.268 338.072Z" fill="#FF585F"/>
<path d="M324.639 306.589L333.009 314.989C333.453 315.434 333.706 316.042 333.706 316.678V328.047C333.706 328.683 333.453 329.3 333 329.745L324.702 338.072C324.503 338.263 324.196 338.263 323.996 338.072L319.626 333.686C319.427 333.487 319.427 333.169 319.626 332.978L328.584 323.988C329.516 323.053 329.516 321.545 328.584 320.61L319.626 311.62C319.427 311.42 319.427 311.102 319.626 310.912L323.933 306.589C324.132 306.399 324.449 306.399 324.639 306.589Z" fill="#E9EAEB"/>
<path d="M308.632 338.072L300.261 329.673C299.818 329.228 299.564 328.619 299.564 327.984V316.614C299.564 315.979 299.818 315.361 300.27 314.916L308.568 306.589C308.758 306.399 309.075 306.399 309.274 306.589L313.645 310.975C313.835 311.175 313.835 311.493 313.645 311.684L304.686 320.674C303.754 321.609 303.754 323.116 304.686 324.052L313.645 333.042C313.835 333.241 313.835 333.559 313.645 333.75L309.337 338.072C309.138 338.263 308.822 338.263 308.632 338.072Z" fill="#E9EAEB"/>
<path d="M1329.64 269.421L1348.62 288.464C1349.63 289.481 1350.2 290.852 1350.2 292.287L1350.25 318.022C1350.25 319.466 1349.68 320.846 1348.65 321.863L1329.91 340.669C1329.47 341.105 1328.76 341.105 1328.32 340.66L1318.41 330.717C1317.97 330.272 1317.97 329.554 1318.41 329.109L1338.66 308.796C1340.75 306.689 1340.75 303.265 1338.64 301.15L1318.33 280.763C1317.89 280.318 1317.89 279.601 1318.33 279.156L1328.05 269.403C1328.48 268.977 1329.2 268.977 1329.64 269.421Z" fill="#FF585F"/>
<path d="M1313.23 366.695L1294.25 347.643C1293.24 346.626 1292.67 345.255 1292.67 343.82L1292.62 318.095C1292.62 316.651 1293.19 315.27 1294.22 314.253L1312.96 295.438C1313.4 295.002 1314.11 295.002 1314.55 295.447L1324.46 305.391C1324.9 305.836 1324.9 306.553 1324.46 306.998L1304.21 327.312C1302.12 329.418 1302.12 332.842 1304.23 334.958L1324.54 355.344C1324.98 355.789 1324.98 356.506 1324.54 356.951L1314.82 366.704C1314.39 367.14 1313.67 367.14 1313.23 366.695Z" fill="#FF585F"/>
<path d="M719.997 269.421L738.972 288.464C739.986 289.481 740.556 290.852 740.556 292.287L740.601 318.022C740.601 319.466 740.031 320.846 739.009 321.863L720.259 340.669C719.816 341.105 719.11 341.105 718.667 340.66L708.758 330.717C708.315 330.272 708.315 329.554 708.758 329.109L729 308.796C731.1 306.689 731.091 303.265 728.982 301.15L708.668 280.763C708.224 280.318 708.224 279.601 708.668 279.156L718.386 269.403C718.839 268.977 719.553 268.977 719.997 269.421Z" fill="#FF585F"/>
<path d="M703.582 366.695L684.606 347.643C683.593 346.626 683.023 345.255 683.023 343.82L682.978 318.095C682.978 316.651 683.548 315.27 684.57 314.253L703.32 295.438C703.763 295.002 704.469 295.002 704.912 295.447L714.821 305.391C715.264 305.836 715.264 306.553 714.821 306.998L694.578 327.312C692.479 329.418 692.488 332.842 694.596 334.958L714.911 355.344C715.355 355.789 715.355 356.506 714.911 356.951L705.193 366.704C704.74 367.14 704.025 367.14 703.582 366.695Z" fill="#FF585F"/>
<path d="M111.871 269.421L130.856 288.464C131.869 289.481 132.439 290.852 132.439 292.287L132.485 318.022C132.485 319.466 131.914 320.846 130.892 321.863L112.152 340.669C111.708 341.105 111.002 341.105 110.559 340.66L100.65 330.717C100.207 330.272 100.207 329.554 100.65 329.109L120.893 308.796C122.992 306.689 122.983 303.265 120.884 301.15L100.569 280.763C100.125 280.318 100.125 279.601 100.569 279.156L110.287 269.403C110.713 268.977 111.428 268.977 111.871 269.421Z" fill="#37FBE4"/>
<path d="M95.4563 366.695L76.4716 347.643C75.4581 346.626 74.888 345.255 74.888 343.82L74.8428 318.095C74.8428 316.651 75.4128 315.27 76.4354 314.253L95.1848 295.438C95.6282 295.002 96.334 295.002 96.7774 295.447L106.686 305.391C107.129 305.836 107.129 306.553 106.686 306.998L86.4435 327.312C84.3441 329.418 84.3532 332.842 86.4616 334.958L106.776 355.344C107.22 355.789 107.22 356.506 106.776 356.951L97.0579 366.704C96.6145 367.14 95.8997 367.14 95.4563 366.695Z" fill="#37FBE4"/>
<path d="M1125.49 450.011L1143.52 468.108C1144.48 469.071 1145.03 470.379 1145.03 471.741L1145.07 496.186C1145.07 497.557 1144.53 498.874 1143.56 499.837L1125.75 517.708C1125.34 518.125 1124.66 518.125 1124.24 517.698L1114.82 508.255C1114.4 507.837 1114.4 507.147 1114.82 506.729L1134.05 487.432C1136.05 485.426 1136.04 482.175 1134.04 480.168L1114.75 460.808C1114.33 460.39 1114.32 459.709 1114.75 459.282L1123.99 450.011C1124.39 449.593 1125.07 449.593 1125.49 450.011Z" fill="#8727FF"/>
<path d="M1109.9 542.425L1091.86 524.327C1090.9 523.365 1090.36 522.057 1090.36 520.695L1090.32 496.25C1090.32 494.878 1090.86 493.562 1091.83 492.599L1109.64 474.728C1110.05 474.31 1110.73 474.31 1111.15 474.737L1120.57 484.181C1120.98 484.599 1120.98 485.289 1120.57 485.707L1101.34 505.003C1099.34 507.01 1099.35 510.261 1101.35 512.268L1120.64 531.628C1121.06 532.046 1121.06 532.727 1120.64 533.154L1111.4 542.425C1110.99 542.843 1110.31 542.843 1109.9 542.425Z" fill="#8727FF"/>
<path d="M518.775 450.011L536.801 468.108C537.76 469.071 538.303 470.379 538.303 471.741L538.348 496.186C538.348 497.557 537.805 498.874 536.837 499.837L519.029 517.708C518.612 518.125 517.934 518.125 517.517 517.698L508.097 508.255C507.681 507.837 507.681 507.147 508.097 506.729L527.327 487.432C529.317 485.426 529.317 482.175 527.317 480.168L508.025 460.808C507.609 460.39 507.609 459.709 508.025 459.282L517.264 450.011C517.671 449.593 518.35 449.593 518.775 450.011Z" fill="#E9EAEB"/>
<path d="M503.184 542.425L485.15 524.327C484.191 523.365 483.648 522.057 483.648 520.695L483.603 496.25C483.603 494.878 484.146 493.562 485.114 492.599L502.922 474.728C503.338 474.31 504.017 474.31 504.433 474.737L513.853 484.181C514.269 484.599 514.269 485.289 513.853 485.707L494.624 505.003C492.633 507.01 492.633 510.261 494.633 512.268L513.926 531.628C514.342 532.046 514.342 532.727 513.926 533.154L504.687 542.425C504.279 542.843 503.601 542.843 503.184 542.425Z" fill="#E9EAEB"/>
<path d="M672.091 519.515H645.578C644.166 519.515 642.809 518.952 641.804 517.944L623.86 499.937C622.856 498.929 622.295 497.558 622.295 496.132V469.761C622.295 469.144 622.802 468.645 623.417 468.645H637.262C637.877 468.645 638.375 469.144 638.375 469.771V498.248C638.375 501.199 640.764 503.596 643.705 503.596H672.082C672.698 503.596 673.204 504.096 673.204 504.722V518.398C673.213 519.015 672.707 519.515 672.091 519.515Z" fill="#FF585F"/>
<path d="M647.759 444.227H674.272C675.684 444.227 677.041 444.79 678.045 445.788L695.99 463.796C696.994 464.804 697.555 466.175 697.555 467.61V493.98C697.555 494.597 697.048 495.097 696.433 495.097H682.588C681.973 495.097 681.475 494.597 681.475 493.971V465.494C681.475 462.542 679.086 460.145 676.145 460.145H647.768C647.152 460.145 646.646 459.646 646.646 459.019V445.343C646.637 444.726 647.143 444.227 647.759 444.227Z" fill="#FF585F"/>
<path d="M63.9663 519.515H37.4529C36.0412 519.515 34.6839 518.952 33.6795 517.944L15.7354 499.937C14.731 498.929 14.1699 497.558 14.1699 496.132V469.761C14.1699 469.144 14.6767 468.645 15.292 468.645H29.1369C29.7522 468.645 30.259 469.144 30.259 469.771V498.248C30.259 501.199 32.6479 503.596 35.5888 503.596H63.9663C64.5816 503.596 65.0884 504.096 65.0884 504.722V518.398C65.0884 519.015 64.5816 519.515 63.9663 519.515Z" fill="#37FBE4"/>
<path d="M39.6338 444.227H66.1472C67.5588 444.227 68.9162 444.79 69.9206 445.788L87.8647 463.796C88.8691 464.804 89.4301 466.175 89.4301 467.61V493.98C89.4301 494.597 88.9234 495.097 88.3081 495.097H74.4632C73.8479 495.097 73.3411 494.597 73.3411 493.971V465.494C73.3411 462.542 70.9522 460.145 68.0113 460.145H39.6338C39.0185 460.145 38.5117 459.646 38.5117 459.019V445.343C38.5117 444.726 39.0185 444.227 39.6338 444.227Z" fill="#37FBE4"/>
<path d="M1281.73 519.515H1255.21C1253.8 519.515 1252.45 518.952 1251.44 517.944L1233.5 499.937C1232.49 498.929 1231.93 497.558 1231.93 496.132V469.761C1231.93 469.144 1232.44 468.645 1233.05 468.645H1246.9C1247.51 468.645 1248.01 469.144 1248.01 469.771V498.248C1248.01 501.199 1250.4 503.596 1253.34 503.596H1281.72C1282.33 503.596 1282.84 504.096 1282.84 504.722V518.398C1282.85 519.015 1282.35 519.515 1281.73 519.515Z" fill="#8727FF"/>
<path d="M1257.4 444.227H1283.91C1285.32 444.227 1286.68 444.79 1287.68 445.788L1305.63 463.796C1306.63 464.804 1307.19 466.175 1307.19 467.61V493.98C1307.19 494.597 1306.69 495.097 1306.07 495.097H1292.23C1291.61 495.097 1291.11 494.597 1291.11 493.971V465.494C1291.11 462.542 1288.72 460.145 1285.78 460.145H1257.41C1256.79 460.145 1256.28 459.646 1256.28 459.019V445.343C1256.28 444.726 1256.78 444.227 1257.4 444.227Z" fill="#8727FF"/>
<path d="M1083.65 384.102L1100.29 400.802C1101.18 401.692 1101.67 402.899 1101.67 404.162V426.764C1101.67 428.035 1101.17 429.243 1100.27 430.133L1083.77 446.687C1083.38 447.068 1082.76 447.068 1082.37 446.687L1073.68 437.969C1073.3 437.579 1073.3 436.952 1073.68 436.562L1091.49 418.691C1093.34 416.838 1093.34 413.833 1091.49 411.98L1073.68 394.109C1073.3 393.719 1073.3 393.092 1073.68 392.702L1082.24 384.12C1082.63 383.721 1083.26 383.721 1083.65 384.102Z" fill="#FF585F"/>
<path d="M1056.22 384.102L1072.86 400.802C1073.75 401.692 1074.25 402.899 1074.25 404.162V426.764C1074.25 428.035 1073.74 429.243 1072.84 430.133L1056.35 446.687C1055.96 447.068 1055.33 447.068 1054.94 446.687L1046.26 437.969C1045.87 437.579 1045.87 436.952 1046.26 436.562L1064.07 418.691C1065.91 416.838 1065.91 413.833 1064.07 411.98L1046.26 394.109C1045.87 393.719 1045.87 393.092 1046.26 392.702L1054.81 384.12C1055.21 383.721 1055.83 383.721 1056.22 384.102Z" fill="#FF585F"/>
<path d="M474.011 384.102L490.652 400.802C491.538 401.692 492.036 402.899 492.036 404.162V426.764C492.036 428.035 491.529 429.243 490.633 430.133L474.137 446.687C473.748 447.068 473.124 447.068 472.735 446.687L464.048 437.969C463.659 437.579 463.659 436.952 464.048 436.562L481.856 418.691C483.702 416.838 483.702 413.833 481.856 411.98L464.048 394.109C463.659 393.719 463.659 393.092 464.048 392.702L472.599 384.12C472.988 383.721 473.621 383.721 474.011 384.102Z" fill="#8727FF"/>
<path d="M446.583 384.102L463.224 400.802C464.111 401.692 464.608 402.899 464.608 404.162V426.764C464.608 428.035 464.102 429.243 463.206 430.133L446.71 446.687C446.32 447.068 445.696 447.068 445.307 446.687L436.62 437.969C436.231 437.579 436.231 436.952 436.62 436.562L454.428 418.691C456.274 416.838 456.274 413.833 454.428 411.98L436.62 394.109C436.231 393.719 436.231 393.092 436.62 392.702L445.171 384.12C445.56 383.721 446.194 383.721 446.583 384.102Z" fill="#8727FF"/>
<path d="M845.831 252.813L866.635 273.69C867.748 274.807 868.363 276.314 868.363 277.885V306.135C868.363 307.715 867.73 309.241 866.608 310.358L845.994 331.044C845.506 331.525 844.727 331.525 844.248 331.035L833.389 320.138C832.9 319.647 832.9 318.866 833.389 318.376L855.649 296.037C857.957 293.722 857.957 289.962 855.649 287.647L833.389 265.308C832.9 264.818 832.9 264.037 833.389 263.547L844.085 252.813C844.555 252.323 845.343 252.323 845.831 252.813Z" fill="#37FBE4"/>
<path d="M811.545 252.813L832.349 273.69C833.462 274.807 834.077 276.314 834.077 277.885V306.135C834.077 307.715 833.444 309.241 832.322 310.358L811.708 331.044C811.219 331.525 810.441 331.525 809.962 331.035L799.103 320.138C798.614 319.647 798.614 318.866 799.103 318.376L821.363 296.037C823.671 293.722 823.671 289.962 821.363 287.647L799.103 265.308C798.614 264.818 798.614 264.037 799.103 263.547L809.799 252.813C810.278 252.323 811.056 252.323 811.545 252.813Z" fill="#37FBE4"/>
<path d="M239.018 252.813L259.821 273.69C260.934 274.807 261.55 276.314 261.55 277.885V306.135C261.55 307.715 260.916 309.241 259.794 310.358L239.181 331.044C238.692 331.525 237.914 331.525 237.434 331.035L226.575 320.138C226.087 319.647 226.087 318.866 226.575 318.376L248.836 296.037C251.143 293.722 251.143 289.962 248.836 287.647L226.575 265.308C226.087 264.818 226.087 264.037 226.575 263.547L237.271 252.813C237.742 252.323 238.529 252.323 239.018 252.813Z" fill="#8727FF"/>
<path d="M204.732 252.813L225.535 273.69C226.648 274.807 227.264 276.314 227.264 277.885V306.135C227.264 307.715 226.63 309.241 225.508 310.358L204.895 331.044C204.406 331.525 203.628 331.525 203.148 331.035L192.289 320.138C191.801 319.647 191.801 318.866 192.289 318.376L214.55 296.037C216.857 293.722 216.857 289.962 214.55 287.647L192.289 265.308C191.801 264.818 191.801 264.037 192.289 263.547L202.985 252.813C203.465 252.323 204.252 252.323 204.732 252.813Z" fill="#8727FF"/>
<path d="M1421.18 252.813L1441.99 273.69C1443.1 274.807 1443.71 276.314 1443.71 277.885V306.135C1443.71 307.715 1443.08 309.241 1441.96 310.358L1421.34 331.044C1420.86 331.525 1420.08 331.525 1419.6 331.035L1408.74 320.138C1408.25 319.647 1408.25 318.866 1408.74 318.376L1431 296.037C1433.31 293.722 1433.31 289.962 1431 287.647L1408.74 265.308C1408.25 264.818 1408.25 264.037 1408.74 263.547L1419.44 252.813C1419.91 252.323 1420.7 252.323 1421.18 252.813Z" fill="#E9EAEB"/>
<path d="M1111.76 59.8105H1159.12C1161.65 59.8105 1164.07 60.8185 1165.86 62.6074L1197.9 94.7624C1199.7 96.5695 1200.7 99.0122 1200.69 101.564V148.666C1200.68 149.765 1199.79 150.664 1198.69 150.664H1173.96C1172.85 150.664 1171.96 149.765 1171.96 148.657V97.7954C1171.96 92.5194 1167.69 88.2424 1162.44 88.2424H1111.75C1110.65 88.2424 1109.75 87.3434 1109.75 86.2356V61.8083C1109.77 60.7096 1110.66 59.8105 1111.76 59.8105Z" fill="#E9EAEB"/>
<path d="M1243.13 105.187V152.716C1243.13 155.249 1242.13 157.683 1240.35 159.472L1208.31 191.627C1206.5 193.434 1204.07 194.442 1201.53 194.423H1154.59C1153.5 194.414 1152.6 193.524 1152.6 192.417V167.599C1152.6 166.491 1153.5 165.592 1154.6 165.592H1205.28C1210.54 165.592 1214.8 161.315 1214.8 156.039V105.178C1214.8 104.07 1215.7 103.171 1216.8 103.171H1241.14C1242.25 103.18 1243.13 104.079 1243.13 105.187Z" fill="#E9EAEB"/>
<path d="M1149.18 99.4116C1147.08 99.4116 1145.37 101.128 1145.37 103.235V111.88C1145.37 113.995 1147.07 115.702 1149.18 115.702H1157.79C1159.89 115.702 1161.6 113.986 1161.6 111.88V103.235C1161.6 101.128 1159.9 99.4116 1157.79 99.4116H1149.18Z" fill="#E9EAEB"/>
<path d="M502.125 59.8105H549.487C552.012 59.8105 554.437 60.8185 556.22 62.6074L588.262 94.7624C590.063 96.5695 591.067 99.0122 591.049 101.564V148.666C591.04 149.765 590.153 150.664 589.049 150.664H564.319C563.215 150.664 562.319 149.765 562.319 148.657V97.7954C562.319 92.5194 558.057 88.2424 552.799 88.2424H502.116C501.012 88.2424 500.116 87.3434 500.116 86.2356V61.8083C500.125 60.7096 501.021 59.8105 502.125 59.8105Z" fill="#FF585F"/>
<path d="M633.498 105.187V152.716C633.498 155.249 632.493 157.683 630.711 159.472L598.668 191.627C596.867 193.434 594.433 194.442 591.891 194.423H544.954C543.859 194.414 542.963 193.524 542.963 192.417V167.599C542.963 166.491 543.859 165.592 544.963 165.592H595.646C600.903 165.592 605.165 161.315 605.165 156.039V105.178C605.165 104.07 606.061 103.171 607.165 103.171H631.507C632.602 103.18 633.498 104.079 633.498 105.187Z" fill="#FF585F"/>
<path d="M539.543 99.4116C537.435 99.4116 535.733 101.128 535.733 103.235V111.88C535.733 113.995 537.435 115.702 539.543 115.702H548.158C550.266 115.702 551.967 113.986 551.967 111.88V103.235C551.967 101.128 550.257 99.4116 548.158 99.4116H539.543Z" fill="#FF585F"/>
<path d="M25.3726 105.187V152.716C25.3726 155.249 24.3682 157.683 22.5855 159.472L-9.45679 191.627C-11.2575 193.434 -13.6917 194.442 -16.2344 194.423H-63.1713C-64.2663 194.414 -65.1621 193.524 -65.1621 192.417V167.599C-65.1621 166.491 -64.2663 165.592 -63.1623 165.592H-12.4791C-7.2217 165.592 -2.95964 161.315 -2.95964 156.039V105.178C-2.95964 104.07 -2.0638 103.171 -0.959831 103.171H23.3818C24.4768 103.18 25.3726 104.079 25.3726 105.187Z" fill="#8727FF"/>
<path d="M961.205 119.135V153.043C961.205 154.85 960.491 156.584 959.215 157.864L936.357 180.802C935.072 182.092 933.335 182.809 931.525 182.8H898.044C897.257 182.8 896.623 182.155 896.623 181.374V163.667C896.623 162.877 897.266 162.232 898.053 162.232H934.203C937.959 162.232 940.999 159.181 940.999 155.413V119.135C940.999 118.345 941.642 117.7 942.429 117.7H959.794C960.563 117.7 961.205 118.345 961.205 119.135Z" fill="#FF585F"/>
<path d="M940.99 225.898V191.99C940.99 190.183 941.705 188.449 942.981 187.168L965.839 164.23C967.124 162.941 968.861 162.223 970.671 162.233H1004.15C1004.94 162.233 1005.57 162.877 1005.57 163.658V181.366C1005.57 182.156 1004.93 182.8 1004.14 182.8H967.992C964.237 182.8 961.196 185.852 961.196 189.62V225.907C961.196 226.697 960.554 227.342 959.767 227.342H942.402C941.624 227.323 940.99 226.688 940.99 225.898Z" fill="#FF585F"/>
<path d="M351.569 119.135V153.043C351.569 154.85 350.854 156.584 349.578 157.864L326.72 180.802C325.435 182.092 323.698 182.809 321.888 182.8H288.407C287.62 182.8 286.986 182.155 286.986 181.374V163.667C286.986 162.877 287.62 162.232 288.407 162.232H324.567C328.322 162.232 331.362 159.181 331.362 155.413V119.135C331.362 118.345 332.005 117.7 332.792 117.7H350.157C350.926 117.7 351.569 118.345 351.569 119.135Z" fill="#8727FF"/>
<path d="M331.345 225.898V191.99C331.345 190.183 332.06 188.449 333.336 187.168L356.193 164.23C357.478 162.941 359.216 162.223 361.025 162.233H394.506C395.294 162.233 395.927 162.877 395.927 163.658V181.366C395.927 182.156 395.285 182.8 394.497 182.8H358.338C354.582 182.8 351.542 185.852 351.542 189.62V225.907C351.542 226.697 350.9 227.342 350.112 227.342H332.747C331.987 227.323 331.345 226.688 331.345 225.898Z" fill="#8727FF"/>
<path d="M1002.74 9.34842L1018.77 25.4304C1019.62 26.284 1020.1 27.4464 1020.1 28.6632V50.4207C1020.1 51.6375 1019.61 52.8089 1018.75 53.6716L1002.87 69.6083C1002.5 69.9806 1001.89 69.9806 1001.52 69.6083L993.148 61.2086C992.777 60.8363 992.777 60.2279 993.148 59.8556L1010.3 42.6476C1012.08 40.8587 1012.08 37.971 1010.3 36.1821L993.148 18.974C992.777 18.6017 992.777 17.9933 993.148 17.621L1001.38 9.3575C1001.76 8.97611 1002.37 8.97611 1002.74 9.34842Z" fill="#E9EAEB"/>
<path d="M1043.61 69.6085L1027.59 53.5265C1026.74 52.6729 1026.26 51.5105 1026.26 50.2937V28.5362C1026.26 27.3194 1026.75 26.148 1027.61 25.2853L1043.49 9.34857C1043.86 8.97626 1044.47 8.97626 1044.84 9.34857L1053.21 17.7483C1053.58 18.1206 1053.58 18.729 1053.21 19.1013L1036.06 36.3093C1034.28 38.0983 1034.28 40.9859 1036.06 42.7748L1053.21 59.9829C1053.58 60.3552 1053.58 60.9636 1053.21 61.3359L1044.97 69.5994C1044.59 69.9808 1043.99 69.9808 1043.61 69.6085Z" fill="#E9EAEB"/>
<path d="M393.104 9.34842L409.129 25.4304C409.98 26.284 410.459 27.4464 410.459 28.6632V50.4207C410.459 51.6375 409.971 52.8089 409.111 53.6716L393.23 69.6083C392.859 69.9806 392.253 69.9806 391.882 69.6083L383.512 61.2086C383.141 60.8363 383.141 60.2279 383.512 59.8556L400.659 42.6476C402.442 40.8587 402.442 37.971 400.659 36.1821L383.512 18.974C383.141 18.6017 383.141 17.9933 383.512 17.621L391.746 9.3575C392.126 8.97611 392.733 8.97611 393.104 9.34842Z" fill="#37FBE4"/>
<path d="M433.978 69.6085L417.952 53.5265C417.102 52.6729 416.622 51.5105 416.622 50.2937V28.5362C416.622 27.3194 417.111 26.148 417.97 25.2853L433.851 9.34857C434.222 8.97626 434.828 8.97626 435.2 9.34857L443.57 17.7483C443.941 18.1206 443.941 18.729 443.57 19.1013L426.422 36.3093C424.639 38.0983 424.639 40.9859 426.422 42.7748L443.57 59.9829C443.941 60.3552 443.941 60.9636 443.57 61.3359L435.335 69.5994C434.955 69.9808 434.349 69.9808 433.978 69.6085Z" fill="#37FBE4"/>
<path d="M1432.64 124.811L1458.01 150.273C1459.36 151.626 1460.12 153.469 1460.12 155.395V189.847C1460.12 191.781 1459.35 193.634 1457.98 194.987L1432.84 220.222C1432.25 220.812 1431.29 220.812 1430.7 220.213L1417.45 206.919C1416.87 206.329 1416.87 205.366 1417.45 204.776L1444.6 177.533C1447.41 174.709 1447.41 170.124 1444.6 167.299L1417.45 140.057C1416.87 139.467 1416.87 138.504 1417.45 137.914L1430.49 124.829C1431.09 124.22 1432.05 124.22 1432.64 124.811Z" fill="#8727FF"/>
<path d="M1384.11 220.213L1358.74 194.751C1357.39 193.397 1356.63 191.554 1356.63 189.629V155.186C1356.63 153.251 1357.4 151.399 1358.76 150.037L1383.91 124.801C1384.5 124.211 1385.46 124.211 1386.05 124.81L1399.29 138.105C1399.88 138.695 1399.88 139.658 1399.29 140.248L1372.15 167.49C1369.33 170.314 1369.33 174.9 1372.15 177.724L1399.29 204.966C1399.88 205.557 1399.88 206.519 1399.29 207.109L1386.25 220.195C1385.66 220.812 1384.7 220.812 1384.11 220.213Z" fill="#8727FF"/>
<path d="M823.001 124.811L848.375 150.273C849.723 151.626 850.483 153.469 850.483 155.395V189.847C850.483 191.781 849.714 193.634 848.347 194.987L823.2 220.222C822.603 220.812 821.653 220.812 821.065 220.213L807.817 206.919C807.229 206.329 807.229 205.366 807.817 204.776L834.964 177.533C837.778 174.709 837.778 170.124 834.964 167.299L807.817 140.057C807.229 139.467 807.229 138.504 807.817 137.914L820.857 124.829C821.454 124.22 822.404 124.22 823.001 124.811Z" fill="#E9EAEB"/>
<path d="M774.471 220.213L749.098 194.751C747.75 193.397 746.98 191.554 746.98 189.629V155.186C746.98 153.251 747.75 151.399 749.116 150.037L774.263 124.801C774.851 124.211 775.81 124.211 776.399 124.81L789.646 138.105C790.234 138.695 790.234 139.658 789.646 140.248L762.499 167.49C759.685 170.314 759.685 174.9 762.499 177.724L789.646 204.966C790.234 205.557 790.234 206.519 789.646 207.109L776.607 220.195C776.019 220.812 775.059 220.812 774.471 220.213Z" fill="#E9EAEB"/>
<path d="M214.866 124.811L240.239 150.273C241.597 151.626 242.357 153.469 242.357 155.395V189.847C242.357 191.781 241.588 193.634 240.221 194.987L215.074 220.222C214.486 220.812 213.527 220.812 212.939 220.213L199.691 206.919C199.103 206.329 199.103 205.366 199.691 204.776L226.838 177.533C229.652 174.709 229.652 170.124 226.838 167.299L199.691 140.057C199.103 139.467 199.103 138.504 199.691 137.914L212.731 124.829C213.319 124.22 214.278 124.22 214.866 124.811Z" fill="#37FBE4"/>
<path d="M166.337 220.213L140.964 194.751C139.607 193.397 138.847 191.554 138.847 189.629V155.186C138.847 153.251 139.616 151.399 140.982 150.037L166.129 124.801C166.717 124.211 167.677 124.211 168.265 124.81L181.512 138.105C182.101 138.695 182.101 139.658 181.512 140.248L154.366 167.49C151.551 170.314 151.551 174.9 154.366 177.724L181.512 204.966C182.101 205.557 182.101 206.519 181.512 207.109L168.473 220.195C167.894 220.812 166.935 220.812 166.337 220.213Z" fill="#37FBE4"/>
<path d="M934.276 54.144L942.646 62.5437C943.089 62.9887 943.343 63.5971 943.343 64.2327V75.6018C943.343 76.2375 943.089 76.855 942.637 77.2999L934.339 85.627C934.149 85.8177 933.832 85.8177 933.633 85.627L929.263 81.241C929.073 81.0412 929.073 80.7234 929.263 80.5327L938.221 71.5427C939.153 70.6074 939.153 69.1 938.221 68.1647L929.263 59.1747C929.073 58.975 929.073 58.6571 929.263 58.4664L933.57 54.144C933.769 53.9533 934.086 53.9533 934.276 54.144Z" fill="#8727FF"/>
<path d="M918.268 85.627L909.898 77.2273C909.455 76.7823 909.201 76.1739 909.201 75.5383V64.1692C909.201 63.5335 909.455 62.916 909.907 62.4711L918.205 54.144C918.395 53.9533 918.712 53.9533 918.911 54.144L923.281 58.53C923.471 58.7298 923.471 59.0476 923.281 59.2383L914.323 68.2283C913.391 69.1636 913.391 70.671 914.323 71.6063L923.281 80.5962C923.471 80.796 923.471 81.1138 923.281 81.3045L918.974 85.627C918.775 85.8177 918.458 85.8177 918.268 85.627Z" fill="#8727FF"/>
<path d="M324.639 54.144L333.009 62.5437C333.453 62.9887 333.706 63.5971 333.706 64.2327V75.6018C333.706 76.2375 333.453 76.855 333 77.2999L324.702 85.627C324.503 85.8177 324.196 85.8177 323.996 85.627L319.626 81.241C319.427 81.0412 319.427 80.7234 319.626 80.5327L328.584 71.5427C329.516 70.6074 329.516 69.1 328.584 68.1647L319.626 59.1747C319.427 58.975 319.427 58.6571 319.626 58.4664L323.933 54.144C324.132 53.9533 324.449 53.9533 324.639 54.144Z" fill="#8727FF"/>
<path d="M308.632 85.627L300.261 77.2273C299.818 76.7823 299.564 76.1739 299.564 75.5383V64.1692C299.564 63.5335 299.818 62.916 300.27 62.4711L308.568 54.144C308.758 53.9533 309.075 53.9533 309.274 54.144L313.645 58.53C313.835 58.7298 313.835 59.0476 313.645 59.2383L304.686 68.2283C303.754 69.1636 303.754 70.671 304.686 71.6063L313.645 80.5962C313.835 80.796 313.835 81.1138 313.645 81.3045L309.337 85.627C309.138 85.8177 308.822 85.8177 308.632 85.627Z" fill="#8727FF"/>
<path d="M1329.64 16.9766L1348.62 36.019C1349.63 37.036 1350.2 38.4072 1350.2 39.842L1350.25 65.5769C1350.25 67.0207 1349.68 68.401 1348.65 69.418L1329.91 88.2243C1329.47 88.6602 1328.76 88.6601 1328.32 88.2152L1318.41 78.2718C1317.97 77.8268 1317.97 77.1094 1318.41 76.6645L1338.66 56.3508C1340.75 54.2441 1340.75 50.8206 1338.64 48.7048L1318.33 28.3185C1317.89 27.8736 1317.89 27.1562 1318.33 26.7112L1328.05 16.9585C1328.48 16.5317 1329.2 16.5317 1329.64 16.9766Z" fill="#FF585F"/>
<path d="M1313.23 114.249L1294.25 95.2071C1293.24 94.1901 1292.67 92.8189 1292.67 91.3841L1292.62 65.6493C1292.62 64.2054 1293.19 62.8252 1294.22 61.8081L1312.96 42.9928C1313.4 42.5569 1314.11 42.5569 1314.55 43.0019L1324.46 52.9453C1324.9 53.3902 1324.9 54.1076 1324.46 54.5526L1304.21 74.8662C1302.12 76.973 1302.12 80.3964 1304.23 82.5122L1324.54 102.899C1324.98 103.343 1324.98 104.061 1324.54 104.506L1314.82 114.259C1314.39 114.694 1313.67 114.694 1313.23 114.249Z" fill="#FF585F"/>
<path d="M719.997 16.9766L738.972 36.019C739.986 37.036 740.556 38.4072 740.556 39.842L740.601 65.5769C740.601 67.0207 740.031 68.401 739.009 69.418L720.259 88.2243C719.816 88.6602 719.11 88.6601 718.667 88.2152L708.758 78.2718C708.315 77.8268 708.315 77.1094 708.758 76.6645L729 56.3508C731.1 54.2441 731.091 50.8206 728.982 48.7048L708.668 28.3185C708.224 27.8736 708.224 27.1562 708.668 26.7112L718.386 16.9585C718.839 16.5317 719.553 16.5317 719.997 16.9766Z" fill="#8727FF"/>
<path d="M703.582 114.249L684.606 95.2071C683.593 94.1901 683.023 92.8189 683.023 91.3841L682.978 65.6493C682.978 64.2054 683.548 62.8252 684.57 61.8081L703.32 42.9928C703.763 42.5569 704.469 42.5569 704.912 43.0019L714.821 52.9453C715.264 53.3902 715.264 54.1076 714.821 54.5526L694.578 74.8662C692.479 76.973 692.488 80.3964 694.596 82.5122L714.911 102.899C715.355 103.343 715.355 104.061 714.911 104.506L705.193 114.259C704.74 114.694 704.025 114.694 703.582 114.249Z" fill="#8727FF"/>
<path d="M111.871 16.9766L130.856 36.019C131.869 37.036 132.439 38.4072 132.439 39.842L132.485 65.5769C132.485 67.0207 131.914 68.401 130.892 69.418L112.152 88.2243C111.708 88.6602 111.002 88.6601 110.559 88.2152L100.65 78.2718C100.207 77.8268 100.207 77.1094 100.65 76.6645L120.893 56.3508C122.992 54.2441 122.983 50.8206 120.884 48.7048L100.569 28.3185C100.125 27.8736 100.125 27.1562 100.569 26.7112L110.287 16.9585C110.713 16.5317 111.428 16.5317 111.871 16.9766Z" fill="#FF585F"/>
<path d="M95.4563 114.249L76.4716 95.2071C75.4581 94.1901 74.888 92.8189 74.888 91.3841L74.8428 65.6493C74.8428 64.2054 75.4128 62.8252 76.4354 61.8081L95.1848 42.9928C95.6282 42.5569 96.334 42.5569 96.7774 43.0019L106.686 52.9453C107.129 53.3902 107.129 54.1076 106.686 54.5526L86.4435 74.8662C84.3441 76.973 84.3532 80.3964 86.4616 82.5122L106.776 102.899C107.22 103.343 107.22 104.061 106.776 104.506L97.0579 114.259C96.6145 114.694 95.8997 114.694 95.4563 114.249Z" fill="#FF585F"/>
<path d="M1125.49 197.566L1143.52 215.664C1144.48 216.626 1145.03 217.934 1145.03 219.296L1145.07 243.741C1145.07 245.113 1144.53 246.429 1143.56 247.392L1125.75 265.263C1125.34 265.68 1124.66 265.68 1124.24 265.254L1114.82 255.81C1114.4 255.392 1114.4 254.702 1114.82 254.284L1134.05 234.988C1136.05 232.981 1136.04 229.739 1134.04 227.723L1114.75 208.363C1114.33 207.945 1114.32 207.255 1114.75 206.837L1123.99 197.566C1124.39 197.148 1125.07 197.148 1125.49 197.566Z" fill="#8727FF"/>
<path d="M1109.9 289.98L1091.86 271.882C1090.9 270.92 1090.36 269.612 1090.36 268.25L1090.32 243.805C1090.32 242.434 1090.86 241.117 1091.83 240.154L1109.64 222.283C1110.05 221.866 1110.73 221.866 1111.15 222.292L1120.57 231.745C1120.98 232.163 1120.98 232.853 1120.57 233.271L1101.34 252.568C1099.34 254.575 1099.35 257.825 1101.35 259.832L1120.64 279.192C1121.06 279.61 1121.06 280.3 1120.64 280.718L1111.4 289.989C1110.99 290.398 1110.31 290.398 1109.9 289.98Z" fill="#8727FF"/>
<path d="M518.775 197.566L536.801 215.664C537.76 216.626 538.303 217.934 538.303 219.296L538.348 243.741C538.348 245.113 537.805 246.429 536.837 247.392L519.029 265.263C518.612 265.68 517.934 265.68 517.517 265.254L508.097 255.81C507.681 255.392 507.681 254.702 508.097 254.284L527.327 234.988C529.317 232.981 529.317 229.739 527.317 227.723L508.025 208.363C507.609 207.945 507.609 207.255 508.025 206.837L517.264 197.566C517.671 197.148 518.35 197.148 518.775 197.566Z" fill="#E9EAEB"/>
<path d="M503.184 289.98L485.15 271.882C484.191 270.92 483.648 269.612 483.648 268.25L483.603 243.805C483.603 242.434 484.146 241.117 485.114 240.154L502.922 222.283C503.338 221.866 504.017 221.866 504.433 222.292L513.853 231.745C514.269 232.163 514.269 232.853 513.853 233.271L494.624 252.568C492.633 254.575 492.633 257.825 494.633 259.832L513.926 279.192C514.342 279.61 514.342 280.3 513.926 280.718L504.687 289.989C504.279 290.398 503.601 290.398 503.184 289.98Z" fill="#E9EAEB"/>
<path d="M672.091 267.069H645.578C644.166 267.069 642.809 266.506 641.804 265.498L623.86 247.491C622.856 246.483 622.295 245.112 622.295 243.677V217.307C622.295 216.689 622.802 216.19 623.417 216.19H637.262C637.877 216.19 638.375 216.689 638.375 217.316V245.793C638.375 248.744 640.764 251.142 643.705 251.142H672.082C672.698 251.142 673.204 251.641 673.204 252.268V265.943C673.213 266.57 672.707 267.069 672.091 267.069Z" fill="#37FBE4"/>
<path d="M647.759 191.781H674.272C675.684 191.781 677.041 192.344 678.045 193.352L695.99 211.359C696.994 212.367 697.555 213.739 697.555 215.173V241.544C697.555 242.161 697.048 242.661 696.433 242.661H682.588C681.973 242.661 681.475 242.161 681.475 241.535V213.057C681.475 210.106 679.086 207.709 676.145 207.709H647.768C647.152 207.709 646.646 207.209 646.646 206.583V192.907C646.637 192.281 647.143 191.781 647.759 191.781Z" fill="#37FBE4"/>
<path d="M63.9663 267.069H37.4529C36.0412 267.069 34.6839 266.506 33.6795 265.498L15.7354 247.491C14.731 246.483 14.1699 245.112 14.1699 243.677V217.307C14.1699 216.689 14.6767 216.19 15.292 216.19H29.1369C29.7522 216.19 30.259 216.689 30.259 217.316V245.793C30.259 248.744 32.6479 251.142 35.5888 251.142H63.9663C64.5816 251.142 65.0884 251.641 65.0884 252.268V265.943C65.0884 266.57 64.5816 267.069 63.9663 267.069Z" fill="#E9EAEB"/>
<path d="M39.6338 191.781H66.1472C67.5588 191.781 68.9162 192.344 69.9206 193.352L87.8647 211.359C88.8691 212.367 89.4301 213.739 89.4301 215.173V241.544C89.4301 242.161 88.9234 242.661 88.3081 242.661H74.4632C73.8479 242.661 73.3411 242.161 73.3411 241.535V213.057C73.3411 210.106 70.9522 207.709 68.0113 207.709H39.6338C39.0185 207.709 38.5117 207.209 38.5117 206.583V192.907C38.5117 192.281 39.0185 191.781 39.6338 191.781Z" fill="#E9EAEB"/>
<path d="M1281.73 267.069H1255.21C1253.8 267.069 1252.45 266.506 1251.44 265.498L1233.5 247.491C1232.49 246.483 1231.93 245.112 1231.93 243.677V217.307C1231.93 216.689 1232.44 216.19 1233.05 216.19H1246.9C1247.51 216.19 1248.01 216.689 1248.01 217.316V245.793C1248.01 248.744 1250.4 251.142 1253.34 251.142H1281.72C1282.33 251.142 1282.84 251.641 1282.84 252.268V265.943C1282.85 266.57 1282.35 267.069 1281.73 267.069Z" fill="#37FBE4"/>
<path d="M1257.4 191.781H1283.91C1285.32 191.781 1286.68 192.344 1287.68 193.352L1305.63 211.359C1306.63 212.367 1307.19 213.739 1307.19 215.173V241.544C1307.19 242.161 1306.69 242.661 1306.07 242.661H1292.23C1291.61 242.661 1291.11 242.161 1291.11 241.535V213.057C1291.11 210.106 1288.72 207.709 1285.78 207.709H1257.41C1256.79 207.709 1256.28 207.209 1256.28 206.583V192.907C1256.28 192.281 1256.78 191.781 1257.4 191.781Z" fill="#37FBE4"/>
<path d="M1083.65 131.657L1100.29 148.357C1101.18 149.247 1101.67 150.454 1101.67 151.717V174.319C1101.67 175.59 1101.17 176.798 1100.27 177.697L1083.77 194.251C1083.38 194.632 1082.76 194.632 1082.37 194.251L1073.68 185.533C1073.3 185.143 1073.3 184.516 1073.68 184.126L1091.49 166.255C1093.34 164.402 1093.34 161.397 1091.49 159.544L1073.68 141.673C1073.3 141.283 1073.3 140.656 1073.68 140.266L1082.24 131.684C1082.63 131.276 1083.26 131.276 1083.65 131.657Z" fill="#37FBE4"/>
<path d="M1056.22 131.657L1072.86 148.357C1073.75 149.247 1074.25 150.454 1074.25 151.717V174.319C1074.25 175.59 1073.74 176.798 1072.84 177.697L1056.35 194.251C1055.96 194.632 1055.33 194.632 1054.94 194.251L1046.26 185.533C1045.87 185.143 1045.87 184.516 1046.26 184.126L1064.07 166.255C1065.91 164.402 1065.91 161.397 1064.07 159.544L1046.26 141.673C1045.87 141.283 1045.87 140.656 1046.26 140.266L1054.81 131.684C1055.21 131.276 1055.83 131.276 1056.22 131.657Z" fill="#37FBE4"/>
<path d="M474.011 131.657L490.652 148.357C491.538 149.247 492.036 150.454 492.036 151.717V174.319C492.036 175.59 491.529 176.798 490.633 177.697L474.137 194.251C473.748 194.632 473.124 194.632 472.735 194.251L464.048 185.533C463.659 185.143 463.659 184.516 464.048 184.126L481.856 166.255C483.702 164.402 483.702 161.397 481.856 159.544L464.048 141.673C463.659 141.283 463.659 140.656 464.048 140.266L472.599 131.684C472.988 131.276 473.621 131.276 474.011 131.657Z" fill="#8727FF"/>
<path d="M446.583 131.657L463.224 148.357C464.111 149.247 464.608 150.454 464.608 151.717V174.319C464.608 175.59 464.102 176.798 463.206 177.697L446.71 194.251C446.32 194.632 445.696 194.632 445.307 194.251L436.62 185.533C436.231 185.143 436.231 184.516 436.62 184.126L454.428 166.255C456.274 164.402 456.274 161.397 454.428 159.544L436.62 141.673C436.231 141.283 436.231 140.656 436.62 140.266L445.171 131.684C445.56 131.276 446.194 131.276 446.583 131.657Z" fill="#8727FF"/>
<path d="M845.831 0.367771L866.635 21.2444C867.748 22.3614 868.363 23.8688 868.363 25.4397V53.69C868.363 55.27 867.73 56.7956 866.608 57.9125L845.994 78.5985C845.506 79.0798 844.727 79.0798 844.248 78.5894L833.389 67.6925C832.9 67.2021 832.9 66.4212 833.389 65.9308L855.649 43.5922C857.957 41.2766 857.957 37.5172 855.649 35.2016L833.389 12.8629C832.9 12.3725 832.9 11.5916 833.389 11.1012L844.085 0.367771C844.555 -0.12259 845.343 -0.12259 845.831 0.367771Z" fill="#37FBE4"/>
<path d="M811.545 0.367771L832.349 21.2444C833.462 22.3614 834.077 23.8688 834.077 25.4397V53.69C834.077 55.27 833.444 56.7956 832.322 57.9125L811.708 78.5985C811.219 79.0798 810.441 79.0798 809.962 78.5894L799.103 67.6925C798.614 67.2021 798.614 66.4212 799.103 65.9308L821.363 43.5922C823.671 41.2766 823.671 37.5172 821.363 35.2016L799.103 12.8629C798.614 12.3725 798.614 11.5916 799.103 11.1012L809.799 0.367771C810.278 -0.12259 811.056 -0.12259 811.545 0.367771Z" fill="#37FBE4"/>
<path d="M239.018 0.367771L259.821 21.2444C260.934 22.3614 261.55 23.8688 261.55 25.4397V53.69C261.55 55.27 260.916 56.7956 259.794 57.9125L239.181 78.5985C238.692 79.0798 237.914 79.0798 237.434 78.5894L226.575 67.6925C226.087 67.2021 226.087 66.4212 226.575 65.9308L248.836 43.5922C251.143 41.2766 251.143 37.5172 248.836 35.2016L226.575 12.8629C226.087 12.3725 226.087 11.5916 226.575 11.1012L237.271 0.367771C237.742 -0.12259 238.529 -0.12259 239.018 0.367771Z" fill="#E9EAEB"/>
<path d="M204.732 0.367771L225.535 21.2444C226.648 22.3614 227.264 23.8688 227.264 25.4397V53.69C227.264 55.27 226.63 56.7956 225.508 57.9125L204.895 78.5985C204.406 79.0798 203.628 79.0798 203.148 78.5894L192.289 67.6925C191.801 67.2021 191.801 66.4212 192.289 65.9308L214.55 43.5922C216.857 41.2766 216.857 37.5172 214.55 35.2016L192.289 12.8629C191.801 12.3725 191.801 11.5916 192.289 11.1012L202.985 0.367771C203.465 -0.12259 204.252 -0.12259 204.732 0.367771Z" fill="#E9EAEB"/>
<path d="M1421.18 0.367771L1441.99 21.2444C1443.1 22.3614 1443.71 23.8688 1443.71 25.4397V53.69C1443.71 55.27 1443.08 56.7956 1441.96 57.9125L1421.34 78.5985C1420.86 79.0798 1420.08 79.0798 1419.6 78.5894L1408.74 67.6925C1408.25 67.2021 1408.25 66.4212 1408.74 65.9308L1431 43.5922C1433.31 41.2766 1433.31 37.5172 1431 35.2016L1408.74 12.8629C1408.25 12.3725 1408.25 11.5916 1408.74 11.1012L1419.44 0.367771C1419.91 -0.12259 1420.7 -0.12259 1421.18 0.367771Z" fill="#37FBE4"/>
</svg>
